<?xml version="1.0" encoding="UTF-8"?>
<svg version="1.1" xmlns="http://www.w3.org/2000/svg" width="2478" height="1752">
<path d="M0 0 C75.24 0 150.48 0 228 0 C228 35.31 228 70.62 228 107 C213.81 107 199.62 107 185 107 C185 85.55 185 64.1 185 42 C138.14 42 91.28 42 43 42 C43 63.45 43 84.9 43 107 C36.090625 107.020625 29.18125 107.04125 22.0625 107.0625 C19.87890869 107.071604 17.69531738 107.08070801 15.44555664 107.09008789 C13.7254238 107.09300698 12.00529028 107.09555555 10.28515625 107.09765625 C8.932547 107.1053302 8.932547 107.1053302 7.5526123 107.11315918 C5.36808255 107.11346882 3.1836367 107.0624587 1 107 C0.67 106.67 0.34 106.34 0 106 C0 71.02 0 36.04 0 0 Z " fill="#FAFAFA" transform="translate(1125,718)"/>
<path d="M0 0 C1.33278992 0.00303635 1.33278992 0.00303635 2.69250488 0.00613403 C3.5987561 0.00517731 4.50500732 0.00422058 5.4387207 0.00323486 C7.35876535 0.002553 9.27881229 0.00440771 11.19885254 0.00857544 C14.14861192 0.01392361 17.09821902 0.00863066 20.04797363 0.00222778 C21.90865105 0.00288856 23.76932838 0.00416972 25.63000488 0.00613403 C26.51853149 0.0041098 27.40705811 0.00208557 28.32250977 0 C34.546305 0.02399665 34.546305 0.02399665 35.66125488 1.13894653 C35.66125488 22.25894653 35.66125488 43.37894653 35.66125488 65.13894653 C82.52125488 65.13894653 129.38125488 65.13894653 177.66125488 65.13894653 C177.66125488 43.68894653 177.66125488 22.23894653 177.66125488 0.13894653 C191.85125488 0.13894653 206.04125488 0.13894653 220.66125488 0.13894653 C220.66125488 35.44894653 220.66125488 70.75894653 220.66125488 107.13894653 C145.75125488 107.13894653 70.84125488 107.13894653 -6.33874512 107.13894653 C-7.03489914 103.65817642 -7.46398266 101.13208869 -7.46572876 97.71005249 C-7.46854858 96.85479477 -7.47136841 95.99953705 -7.47427368 95.11836243 C-7.47224945 94.19348526 -7.47022522 93.26860809 -7.46813965 92.31570435 C-7.46989197 91.33146988 -7.47164429 90.34723541 -7.47344971 89.33317566 C-7.47784452 86.08612292 -7.47493946 82.8391248 -7.47155762 79.59207153 C-7.47223112 77.33716827 -7.47320153 75.08226508 -7.47445679 72.82736206 C-7.47593036 68.10650947 -7.47378929 63.38567582 -7.46911621 58.66482544 C-7.46340605 52.59930549 -7.46670821 46.53382966 -7.47268867 40.46831131 C-7.47629231 35.81537541 -7.47515685 31.16245007 -7.47256088 26.50951385 C-7.47189174 24.27188868 -7.47271959 22.03426256 -7.47504044 19.79663849 C-7.47756512 16.67926975 -7.47372957 13.56197387 -7.46813965 10.4446106 C-7.47016388 9.51163651 -7.47218811 8.57866241 -7.47427368 7.61741638 C-7.44951717 0.20774677 -7.42714263 0.02863631 0 0 Z " fill="#FBFBFB" transform="translate(1132.3387451171875,927.8610534667969)"/>
<path d="M0 0 C11.55 0 23.1 0 35 0 C35 56.43 35 112.86 35 171 C23.45 171 11.9 171 0 171 C0 114.57 0 58.14 0 0 Z " fill="#F9F9F9" transform="translate(1221,797)"/>
</svg>
