<?xml version="1.0" encoding="UTF-8"?>
<svg version="1.1" xmlns="http://www.w3.org/2000/svg" width="2478" height="1752">
<path d="M0 0 C34.98 0 69.96 0 106 0 C106 75.24 106 150.48 106 228 C70.69 228 35.38 228 -1 228 C-1 213.81 -1 199.62 -1 185 C20.45 185 41.9 185 64 185 C64 138.14 64 91.28 64 43 C42.55 43 21.1 43 -1 43 C-1.020625 36.090625 -1.04125 29.18125 -1.0625 22.0625 C-1.071604 19.87890869 -1.08070801 17.69531738 -1.09008789 15.44555664 C-1.09300698 13.7254238 -1.09555555 12.00529028 -1.09765625 10.28515625 C-1.10277222 9.38341675 -1.10788818 8.48167725 -1.11315918 7.5526123 C-1.11346882 5.36808255 -1.0624587 3.1836367 -1 1 C-0.67 0.67 -0.34 0.34 0 0 Z " fill="#FAFAFA" transform="translate(1099,763)"/>
<path d="M0 0 C74.91 0 149.82 0 227 0 C228.15431183 2.30862367 228.1257159 3.61379315 228.12698364 6.18202209 C228.12980347 7.05839828 228.13262329 7.93477448 228.13552856 8.83770752 C228.13249222 10.28328033 228.13249222 10.28328033 228.12939453 11.75805664 C228.13202301 13.27764229 228.13202301 13.27764229 228.13470459 14.82792664 C228.139119 18.18868708 228.13618676 21.54939524 228.1328125 24.91015625 C228.1334856 27.23660797 228.13445568 29.56305963 228.13571167 31.88951111 C228.13718804 36.76952788 228.13503582 41.64952637 228.13037109 46.52954102 C228.12467069 52.80029026 228.12795518 59.07099674 228.13394356 65.34174442 C228.1375481 70.14652329 228.13641113 74.95129193 228.13381577 79.75607109 C228.13314636 82.06905561 228.13397537 84.38204104 228.13629532 86.69502449 C228.13882044 89.92048751 228.13498338 93.14588015 228.12939453 96.37133789 C228.13141876 97.33707733 228.13344299 98.30281677 228.13552856 99.29782104 C228.13270874 100.17137741 228.12988892 101.04493378 228.12698364 101.94496155 C228.1264181 103.09008005 228.1264181 103.09008005 228.12584114 104.25833225 C228 106 228 106 227 107 C223.98191937 107.101137 220.98719487 107.13968909 217.96875 107.1328125 C217.06249878 107.13376923 216.15624756 107.13472595 215.22253418 107.13571167 C213.30248953 107.13639353 211.38244259 107.13453882 209.46240234 107.13037109 C206.51264296 107.12502292 203.56303586 107.13031588 200.61328125 107.13671875 C198.75260383 107.13605797 196.8919265 107.13477681 195.03125 107.1328125 C193.69846008 107.13584885 193.69846008 107.13584885 192.33874512 107.13894653 C186.11494988 107.11494988 186.11494988 107.11494988 185 106 C185 84.88 185 63.76 185 42 C138.14 42 91.28 42 43 42 C43 63.45 43 84.9 43 107 C28.81 107 14.62 107 0 107 C0 71.69 0 36.38 0 0 Z " fill="#FBFBFB" transform="translate(1262,818)"/>
<path d="M0 0 C11.55 0 23.1 0 35 0 C35 56.43 35 112.86 35 171 C23.45 171 11.9 171 0 171 C0 114.57 0 58.14 0 0 Z " fill="#F9F9F9" transform="translate(1216,819)"/>
</svg>
