<?xml version="1.0" encoding="UTF-8"?>
<svg version="1.1" xmlns="http://www.w3.org/2000/svg" width="2478" height="1752">
<path d="M0 0 C36.3 0 72.6 0 110 0 C110 14.52 110 29.04 110 44 C88.22 44 66.44 44 44 44 C44 91.85 44 139.7 44 189 C65.78 189 87.56 189 110 189 C110 203.85 110 218.7 110 234 C73.7 234 37.4 234 0 234 C0 156.78 0 79.56 0 0 Z " fill="#FFFFFF" transform="translate(1050,733)"/>
<path d="M0 0 C36.3 0 72.6 0 110 0 C110 77.22 110 154.44 110 234 C73.7 234 37.4 234 0 234 C0 219.15 0 204.3 0 189 C22.11 189 44.22 189 67 189 C67 141.15 67 93.3 67 44 C44.89 44 22.78 44 0 44 C0 29.48 0 14.96 0 0 Z " fill="#FDFDFD" transform="translate(1318,733)"/>
<path d="M0 0 C58.41 0 116.82 0 177 0 C177 14.52 177 29.04 177 44 C118.59 44 60.18 44 0 44 C0 29.48 0 14.96 0 0 Z " fill="#FFFFFF" transform="translate(1151,975)"/>
</svg>
